<mxfile host="Electron" agent="Mozilla/5.0 (Macintosh; Intel Mac OS X 10_15_7) AppleWebKit/537.36 (KHTML, like Gecko) draw.io/27.0.5 Chrome/134.0.6998.205 Electron/35.3.0 Safari/537.36" version="27.0.5">
  <diagram name="DER - Sistema de SaÃºde (com tipos)" id="saude-diagrama">
    <mxGraphModel dx="2066" dy="859" grid="1" gridSize="10" guides="1" tooltips="1" connect="1" arrows="1" fold="1" page="1" pageScale="1" pageWidth="827" pageHeight="1169" math="0" shadow="0">
      <root>
        <mxCell id="0" />
        <mxCell id="1" parent="0" />
        <mxCell id="usuarios" value="usuarios" style="swimlane" parent="1" vertex="1">
          <mxGeometry x="660" y="270" width="200" height="120" as="geometry" />
        </mxCell>
        <mxCell id="9IAaf8agTx699ODben5p-1" value="id SERIAL PK&#xa;nome VARCHAR(100)&#xa;email VARCHAR(150) UNIQUE&#xa;senha_hash VARCHAR(255)&#xa;data_criacao TIMESTAMPTZ" style="text;html=1;whiteSpace=wrap;" parent="usuarios" vertex="1">
          <mxGeometry y="20" width="280" height="160" as="geometry" />
        </mxCell>
        <mxCell id="profissionais" value="profissionais_saude" style="swimlane" parent="1" vertex="1">
          <mxGeometry x="10" y="490" width="230" height="130" as="geometry" />
        </mxCell>
        <mxCell id="9IAaf8agTx699ODben5p-2" value="id SERIAL PK&#xa;nome VARCHAR(100)&#xa;crm VARCHAR(50) UNIQUE&#xa;email VARCHAR(150) UNIQUE&#xa;senha_hash VARCHAR(255)&#xa;data_registro TIMESTAMPTZ" style="text;html=1;whiteSpace=wrap;" parent="profissionais" vertex="1">
          <mxGeometry y="20" width="280" height="100" as="geometry" />
        </mxCell>
        <mxCell id="medicamentos" value="medicamentos" style="swimlane" parent="1" vertex="1">
          <mxGeometry x="710" y="20" width="240" height="120" as="geometry" />
        </mxCell>
        <mxCell id="9IAaf8agTx699ODben5p-3" value="id SERIAL PK&#xa;usuario_id INTEGER FK&#xa;nome VARCHAR(200)&#xa;dosagem VARCHAR(100)&#xa;frequencia VARCHAR(100)&#xa;criado_em TIMESTAMPTZ" style="text;html=1;whiteSpace=wrap;" parent="medicamentos" vertex="1">
          <mxGeometry y="20" width="280" height="160" as="geometry" />
        </mxCell>
        <mxCell id="agendamentos" value="agendamentos" style="swimlane" parent="1" vertex="1">
          <mxGeometry x="370" y="20" width="270" height="120" as="geometry" />
        </mxCell>
        <mxCell id="9IAaf8agTx699ODben5p-4" value="id SERIAL PK&#xa;medicamento_id INTEGER FK&#xa;horario TIME&#xa;repeticao INTERVAL&#xa;criado_em TIMESTAMPTZ" style="text;html=1;whiteSpace=wrap;" parent="agendamentos" vertex="1">
          <mxGeometry y="20" width="270" height="100" as="geometry" />
        </mxCell>
        <mxCell id="historico" value="historico_consumo" style="swimlane" parent="1" vertex="1">
          <mxGeometry x="10" y="20" width="280" height="120" as="geometry" />
        </mxCell>
        <mxCell id="9IAaf8agTx699ODben5p-5" value="id SERIAL PK&#xa;agendamento_id INTEGER FK&#xa;momento_registro TIMESTAMPTZ&#xa;status CHAR(1) CHECK(&#39;T&#39;,&#39;P&#39;)&#xa;observacoes TEXT" style="text;html=1;whiteSpace=wrap;" parent="historico" vertex="1">
          <mxGeometry y="20" width="280" height="160" as="geometry" />
        </mxCell>
        <mxCell id="autorizacoes" value="autorizacoes_alertas" style="swimlane" parent="1" vertex="1">
          <mxGeometry x="130" y="270" width="250" height="110" as="geometry" />
        </mxCell>
        <mxCell id="9IAaf8agTx699ODben5p-6" value="id SERIAL PK&#xa;usuario_id INTEGER FK&#xa;cuidador_id INTEGER FK&#xa;autorizado BOOLEAN&#xa;data_autorizacao TIMESTAMPTZ" style="text;html=1;whiteSpace=wrap;" parent="autorizacoes" vertex="1">
          <mxGeometry y="20" width="280" height="110" as="geometry" />
        </mxCell>
        <mxCell id="relatorios" value="relatorios_tratamento" style="swimlane" parent="1" vertex="1">
          <mxGeometry x="690" y="500" width="260" height="110" as="geometry" />
        </mxCell>
        <mxCell id="9IAaf8agTx699ODben5p-7" value="id SERIAL PK&#xa;usuario_id INTEGER FK&#xa;profissional_id INTEGER FK&#xa;data_geracao TIMESTAMPTZ&#xa;conteudo TEXT" style="text;html=1;whiteSpace=wrap;" parent="relatorios" vertex="1">
          <mxGeometry y="20" width="300" height="140" as="geometry" />
        </mxCell>
        <mxCell id="9IAaf8agTx699ODben5p-8" value="1:N" style="endArrow=block;html=1;" parent="1" source="medicamentos" target="usuarios" edge="1">
          <mxGeometry relative="1" as="geometry" />
        </mxCell>
        <mxCell id="9IAaf8agTx699ODben5p-9" value="1:N" style="endArrow=block;html=1;" parent="1" source="agendamentos" target="medicamentos" edge="1">
          <mxGeometry relative="1" as="geometry" />
        </mxCell>
        <mxCell id="9IAaf8agTx699ODben5p-10" value="1:N" style="endArrow=block;html=1;" parent="1" source="historico" target="agendamentos" edge="1">
          <mxGeometry relative="1" as="geometry" />
        </mxCell>
        <mxCell id="9IAaf8agTx699ODben5p-11" value="N:N (via autorizacoes_alertas)" style="endArrow=block;html=1;" parent="1" source="autorizacoes" target="usuarios" edge="1">
          <mxGeometry relative="1" as="geometry" />
        </mxCell>
        <mxCell id="9IAaf8agTx699ODben5p-12" value="N:1 (usuario)" style="endArrow=block;html=1;" parent="1" source="relatorios" target="usuarios" edge="1">
          <mxGeometry relative="1" as="geometry" />
        </mxCell>
        <mxCell id="9IAaf8agTx699ODben5p-13" value="N:1 (profissional)" style="endArrow=block;html=1;" parent="1" source="relatorios" target="profissionais" edge="1">
          <mxGeometry relative="1" as="geometry" />
        </mxCell>
      </root>
    </mxGraphModel>
  </diagram>
</mxfile>
